<?xml version="1.0" encoding="UTF-8"?>
<svg width="12px" height="8px" viewBox="0 0 12 8" version="1.1" xmlns="http://www.w3.org/2000/svg" xmlns:xlink="http://www.w3.org/1999/xlink">
    <!-- Generator: Sketch 51.2 (57519) - http://www.bohemiancoding.com/sketch -->
    <title>path5990</title>
    <desc>Created with Sketch.</desc>
    <defs></defs>
    <g id="Page-1" stroke="none" stroke-width="1" fill="none" fill-rule="evenodd">
        <g id="Topic-Instance-Mapping" transform="translate(-923.000000, -210.000000)" fill="#979797">
            <path d="M924.02086,217.369649 C923.618083,217.381736 923.24816,217.14506 923.084974,216.770872 C922.921787,216.396684 922.997795,215.95941 923.27727,215.66459 L928.224845,210.317111 C928.412237,210.114753 928.673611,210 928.947133,210 C929.220656,210 929.482029,210.114753 929.669422,210.317111 L934.61701,215.66459 C934.871931,215.92444 934.967572,216.304513 934.86667,216.656722 C934.765768,217.008931 934.484284,217.27756 934.131891,217.357945 C933.779499,217.43833 933.411943,217.317755 933.172433,217.043198 L928.947138,212.476604 L924.721847,217.043198 C924.541128,217.243622 924.288322,217.361354 924.02086,217.369649 Z" id="path5990"></path>
        </g>
    </g>
</svg>